<svg fill="none" viewBox="0 0 133 32" height="32" width="133" xmlns="http://www.w3.org/2000/svg"><path fill="white" d="M116.074 10.8151C116.092 10.8378 116.128 10.8378 116.156 10.8151L117.618 9.57106C117.65 9.54382 117.655 9.50296 117.636 9.47572L116.637 8.268C116.605 8.22713 116.537 8.22713 116.487 8.268L115.106 9.43939C115.052 9.4848 115.038 9.56198 115.075 9.61192L116.065 10.8151H116.074Z"></path><path fill="white" d="M116.569 8.23602C116.596 8.23602 116.619 8.2453 116.637 8.268L117.636 9.47572C117.659 9.50296 117.65 9.54382 117.618 9.57106L116.156 10.8151C116.156 10.8151 116.124 10.8331 116.11 10.8331C116.097 10.8331 116.083 10.8285 116.069 10.8149L115.079 9.61173C115.038 9.56633 115.052 9.48914 115.111 9.4392L116.492 8.2678C116.514 8.2451 116.546 8.23602 116.574 8.23602M116.574 7.78199C116.437 7.78199 116.306 7.83193 116.201 7.92274L114.82 9.09413C114.575 9.30299 114.539 9.66167 114.734 9.90231L115.724 11.1055C115.82 11.2235 115.96 11.2871 116.115 11.2871C116.237 11.2871 116.36 11.2417 116.455 11.16L117.918 9.91593C118.136 9.72978 118.168 9.40287 117.991 9.18494L116.991 7.97268C116.887 7.85009 116.737 7.77745 116.574 7.77745V7.78199Z"></path><path fill="white" d="M111.423 10.8152C111.441 10.8379 111.477 10.8379 111.504 10.8152L112.967 9.57116C112.999 9.54391 113.008 9.50305 112.985 9.47581L111.99 8.26809C111.959 8.22723 111.89 8.22723 111.84 8.26809L110.46 9.43949C110.405 9.48489 110.391 9.56208 110.428 9.61202L111.418 10.8152H111.423Z"></path><path fill="white" d="M111.918 8.23612C111.945 8.23612 111.968 8.2452 111.986 8.2679L112.981 9.47562C113.003 9.50286 112.994 9.54372 112.962 9.57096L111.5 10.815C111.5 10.815 111.468 10.8332 111.454 10.8332C111.441 10.8332 111.427 10.8286 111.413 10.815L110.423 9.61182C110.382 9.56642 110.396 9.48924 110.455 9.43929L111.836 8.2679C111.859 8.2452 111.89 8.23612 111.918 8.23612ZM111.918 7.78209C111.781 7.78209 111.65 7.83203 111.545 7.92284L110.164 9.09423C109.919 9.30309 109.883 9.66177 110.078 9.9024L111.068 11.1056C111.164 11.2236 111.304 11.2872 111.459 11.2872C111.582 11.2872 111.704 11.2418 111.8 11.1601L113.262 9.91603C113.48 9.72987 113.512 9.40297 113.335 9.18504L112.34 7.97732C112.236 7.85473 112.086 7.78209 111.922 7.78209H111.918Z"></path><path fill="white" d="M103.742 9.4166C103.76 9.4393 103.796 9.4393 103.823 9.4166L105.286 8.17256C105.318 8.14532 105.327 8.10446 105.304 8.07722L104.309 6.8695C104.278 6.82864 104.21 6.82864 104.16 6.8695L102.779 8.04089C102.724 8.0863 102.711 8.16348 102.747 8.21342L103.737 9.4166H103.742Z"></path><path fill="white" d="M104.241 6.83779C104.269 6.83779 104.291 6.8468 104.309 6.8695L105.304 8.07722C105.327 8.10446 105.318 8.14532 105.286 8.17256L103.823 9.4166C103.823 9.4166 103.792 9.43483 103.778 9.43483C103.764 9.43483 103.751 9.43022 103.737 9.4166L102.747 8.21342C102.706 8.16802 102.72 8.09084 102.779 8.04089L104.16 6.8695C104.182 6.8468 104.214 6.83779 104.241 6.83779ZM104.241 6.38376C104.105 6.38376 103.973 6.4337 103.869 6.5245L102.488 7.6959C102.243 7.90475 102.206 8.26344 102.402 8.50407L103.392 9.70725C103.487 9.8253 103.628 9.88886 103.783 9.88886C103.905 9.88886 104.028 9.84346 104.123 9.76173L105.586 8.51769C105.804 8.33154 105.836 8.00464 105.659 7.78671L104.664 6.57899C104.559 6.4564 104.409 6.38376 104.246 6.38376H104.241Z"></path><path fill="white" d="M28.1409 7.87739C28.1591 7.90009 28.1954 7.90009 28.2227 7.87739L29.6853 6.63335C29.7171 6.6061 29.7216 6.56524 29.7034 6.538L28.7041 5.33028C28.6723 5.28942 28.6042 5.28942 28.5543 5.33028L27.1734 6.50168C27.1189 6.54708 27.1053 6.62427 27.1416 6.67421L28.1318 7.87739H28.1409Z"></path><path fill="white" d="M28.6405 5.30319C28.6678 5.30319 28.6905 5.31227 28.7086 5.33497L29.7079 6.54269C29.7306 6.56993 29.7216 6.61079 29.6898 6.63803L28.2272 7.88207C28.2272 7.88207 28.1954 7.90023 28.1817 7.90023C28.1681 7.90023 28.1545 7.89569 28.1409 7.88207L27.1507 6.6789C27.1098 6.63349 27.1234 6.55631 27.1824 6.50636L28.5633 5.33497C28.586 5.31227 28.6178 5.30319 28.645 5.30319M28.645 4.84916C28.5088 4.84916 28.3771 4.8991 28.2726 4.98991L26.8917 6.1613C26.6465 6.37016 26.6101 6.72884 26.8054 6.96947L27.7956 8.17265C27.891 8.2907 28.0318 8.35426 28.1863 8.35426C28.3089 8.35426 28.4316 8.30886 28.5269 8.22714L29.9895 6.9831C30.2076 6.79694 30.2394 6.47004 30.0622 6.25211L29.0629 5.03985C28.9585 4.91726 28.8086 4.84462 28.645 4.84462V4.84916Z"></path><path fill="white" d="M18.5022 9.38465C18.5204 9.40735 18.5567 9.40735 18.584 9.38465L20.0466 8.14061C20.0784 8.11337 20.0875 8.0725 20.0647 8.04526L19.07 6.83754C19.0382 6.79668 18.9701 6.79668 18.9201 6.83754L17.5393 8.00894C17.4848 8.05434 17.4711 8.13153 17.5075 8.18147L18.4977 9.38465H18.5022Z"></path><path fill="white" d="M18.9973 6.80582C19.0246 6.80582 19.0473 6.8149 19.0655 6.8376L20.0602 8.04532C20.0829 8.07256 20.0738 8.11342 20.0421 8.14066L18.5795 9.3847C18.5795 9.3847 18.5477 9.40287 18.534 9.40287C18.5204 9.40287 18.5068 9.39832 18.4932 9.3847L17.5029 8.18153C17.4621 8.13612 17.4757 8.05894 17.5347 8.00899L18.9156 6.8376C18.9383 6.8149 18.9701 6.80582 18.9973 6.80582ZM18.9973 6.35179C18.8611 6.35179 18.7293 6.40173 18.6249 6.49254L17.244 7.66393C16.9988 7.87279 16.9624 8.23147 17.1577 8.4721L18.1479 9.67528C18.2433 9.79333 18.3841 9.85689 18.5386 9.85689C18.6612 9.85689 18.7839 9.81149 18.8792 9.72977L20.3418 8.48573C20.5599 8.29957 20.5917 7.97267 20.4145 7.75474L19.4198 6.54702C19.3153 6.42443 19.1654 6.35179 19.0019 6.35179H18.9973Z"></path><path fill="white" d="M132.094 19.0737C132.262 17.8388 132.312 17.9568 130.318 17.9568C130.473 17.0942 130.627 16.2905 130.75 15.4914C131.181 12.7355 130.041 10.8149 127.697 10.2973C126.448 10.0204 125.295 10.6424 124.15 11.2735C124.005 10.8921 124.391 10.3291 123.741 10.2247C122.283 9.97952 121.951 10.1975 121.661 11.6912C121.556 12.2315 121.456 12.7718 121.361 13.3121C121.088 14.8422 120.82 16.3723 120.534 18.0022C119.744 18.0022 119.076 18.0022 118.409 18.0022C118.081 18.0022 117.945 17.8297 117.932 17.53C117.804 14.7922 116.037 13.3166 114.012 12.0408C113.639 11.8093 113.289 11.8955 112.872 12.1044C110.255 13.412 108.102 15.1736 106.998 17.9886C106.172 17.9886 105.386 18.0204 104.614 17.9795C103.796 17.9341 103.451 17.5073 103.633 16.6174C103.914 15.2417 104.073 13.8615 104.387 12.4858C104.6 11.5595 104.15 11.496 103.428 11.5096C102.715 11.5232 102.156 11.5005 102.034 12.4994C101.811 14.2973 101.334 16.0998 101.207 17.9296H97.755C98.1365 15.7094 98.7679 13.4347 97.4189 11.7366C96.0426 10.0068 94.044 9.73435 91.6775 10.8876C91.4958 10.5879 91.6411 10.2792 91.6911 9.99768C92.1771 7.19178 92.645 4.38134 93.19 1.57544C93.3626 0.69462 93.0992 0.453984 92.2589 0.485766C91.4958 0.513008 91.0007 0.517548 90.8281 1.54365C89.9742 6.67419 89.043 11.8047 88.13 16.9353C88.0709 17.2712 88.1073 17.639 87.803 17.9523H84.1238C84.2555 17.7116 84.3509 17.5437 84.4463 17.3711C85.55 15.3916 84.8914 13.4846 82.9246 13.0034C82.3477 12.8626 81.7436 12.799 81.1168 12.8081C79.5906 12.8308 78.069 12.8172 76.3157 12.8172C79.9585 10.488 83.3652 8.31323 86.8218 6.10665C86.5039 5.55273 86.2359 5.08508 85.927 4.54933C81.3666 7.4869 76.8744 10.3745 72.3957 13.2576C72.641 14.3291 73.068 14.9239 74.3035 14.8513C76.3202 14.8376 78.3052 14.8104 80.3037 14.8286C80.7852 14.8286 81.2622 14.8921 81.7164 14.992C82.3387 15.1237 82.6521 15.5323 82.5885 16.2179C82.5249 16.9035 82.1206 17.3575 81.4711 17.6163C81.2076 17.7207 80.926 17.807 80.658 17.8342C76.6109 17.9432 72.9771 17.9341 69.1344 17.9886C68.4622 17.9977 68.2895 17.58 68.4122 16.9216C68.771 15.0056 69.0754 13.0851 69.4433 11.1691C69.575 10.4835 69.4296 10.2156 68.6938 10.2247C67.9625 10.2338 67.2267 10.2928 66.4908 10.4063C65.1736 10.6106 63.8654 10.9557 62.5981 11.555C59.6957 12.9262 58.66 14.5062 58.4057 17.9614C56.13 17.6935 53.7499 17.9886 51.3107 17.7707C51.8376 14.7968 52.3145 11.9091 52.8732 9.02606C53.0549 8.0953 53.2457 7.12822 53.9088 6.26556C54.84 5.04876 56.6115 4.90347 57.2746 6.02039C57.5108 6.41993 57.6244 6.88304 57.797 7.36431C58.4738 7.33707 59.137 7.25989 59.8592 6.8331C59.7592 5.65716 59.5776 4.55841 58.6646 3.82288C56.2208 1.84785 52.151 3.60949 51.1335 7.09644C50.1978 10.2973 49.8708 13.8115 49.2122 17.0215C49.1577 17.2894 49.1577 17.5664 49.0214 17.866H45.1105C45.4694 15.7866 46.0417 13.3711 44.7881 11.7639C43.4118 9.99768 41.4132 9.72073 38.8877 10.933C38.8695 10.9421 38.8514 10.933 38.8559 10.9103C38.9286 10.4926 38.9831 10.1884 39.0376 9.88418C39.5282 7.10098 39.9733 4.32232 40.532 1.54365C40.7364 0.531169 40.2549 0.494847 39.4873 0.472145C38.6651 0.444903 38.3108 0.671918 38.1609 1.55728C37.2979 6.66057 36.3804 11.7639 35.4765 16.8672C35.4174 17.2031 35.4311 17.5573 35.1858 17.8978C35.1812 17.9069 35.1722 17.9114 35.1631 17.9114H31.1841C31.1841 17.9114 31.1614 17.9023 31.1659 17.8887C31.4112 16.4177 31.6746 15.0147 31.5611 13.6572C31.4203 11.9046 30.7071 10.5561 28.9448 10.0794C27.146 9.5936 25.5245 10.2837 24.0755 11.7412C22.3676 13.4574 22.0224 15.7775 23.1943 17.925C23.2034 17.9387 23.1898 17.9614 23.167 17.9614C21.7272 17.9841 20.3372 18.1067 19.0064 17.8842C18.3432 17.7752 18.2796 17.2939 18.3841 16.6992C18.6384 15.269 18.8428 13.8342 19.1563 12.4086C19.3379 11.5686 18.9473 11.4642 18.2796 11.5141C17.6528 11.555 16.9669 11.3144 16.8216 12.4086C16.5763 14.2247 16.113 16.0454 15.9676 17.8978C15.9676 17.9114 15.954 17.925 15.9404 17.925H12.7063C12.7063 17.925 12.6836 17.916 12.6881 17.9023C13.0697 15.6867 13.6965 13.4211 12.3475 11.7366C10.9712 10.0158 8.98621 9.72527 6.61971 10.8876C6.60608 10.8921 6.59245 10.8876 6.58791 10.8785C6.42893 10.5561 6.57429 10.2292 6.62879 9.92504C7.10573 7.16908 7.55541 4.41766 8.10502 1.6617C8.29579 0.708241 8.00509 0.476686 7.10573 0.476686C6.22908 0.476686 5.89749 0.717321 5.74306 1.62538C4.88458 6.72867 3.9625 11.832 3.0586 16.9353C3.02226 17.135 3.02226 17.3439 2.94959 17.5618C2.86328 17.8161 2.60892 18.0068 2.35001 18.0113C2.05023 18.0158 1.64597 18.0204 1.51424 18.0249C0.696641 18.0249 0.760232 18.0976 0.587628 19.042C0.365058 20.2633 0.319636 20.1498 1.37343 20.1543L3.79898 20.1679C4.63475 20.1816 4.88003 19.9546 4.98905 19.2599C5.18891 17.9387 5.41147 16.6129 5.69309 15.2917C6.03376 13.6753 7.54632 12.3359 8.89082 12.3904C10.3035 12.4494 11.0983 13.6662 10.8076 15.3507C10.2989 18.2928 9.80381 21.2395 9.23603 24.1816C9.0498 25.135 9.51311 25.2077 10.2626 25.2077C10.9939 25.2077 11.4617 25.1078 11.5798 24.2088C11.7479 22.9057 12.025 21.5981 12.2566 20.2769C12.2566 20.2633 12.2702 20.2542 12.2839 20.2542H28.3724C28.3724 20.2542 28.3951 20.2633 28.3906 20.2769C27.9682 22.6696 27.5957 24.9852 27.137 27.2962C26.9235 28.3586 25.8969 29.1804 24.7977 29.3303C23.8756 29.4574 22.9763 28.8172 22.79 27.8547C22.7355 27.5686 22.7446 27.2099 22.3585 27.278C22.1723 27.3098 21.0549 27.5777 20.5916 27.8093C20.5825 27.8093 20.578 27.8229 20.578 27.832C20.6325 29.5164 21.3229 30.7605 22.8763 31.2871C24.3889 31.8002 25.9651 31.6276 27.4595 30.37C28.4996 29.4892 29.1264 28.4267 29.3445 27.1782C29.7397 24.8989 30.1484 22.6152 30.5754 20.1997C30.5754 20.1861 30.589 20.177 30.6027 20.177C32.6467 20.177 34.4499 20.1543 36.2396 20.1906C36.9618 20.2043 37.2979 19.9863 37.4024 19.2236C37.575 17.9568 37.8203 16.6855 38.0701 15.4188C38.3971 13.757 39.8824 12.3723 41.2587 12.404C42.6986 12.4358 43.5071 13.6708 43.2028 15.4143C42.6986 18.3019 42.2172 21.194 41.6585 24.0817C41.4813 24.9943 41.7584 25.2349 42.6305 25.2349C43.4935 25.2349 43.8932 25.017 44.0022 24.0908C44.1521 22.8513 44.4746 21.2894 44.6654 20.2179H48.7489C48.7761 20.4449 48.6126 21.076 48.5581 21.3847C48.0221 24.4631 47.4998 27.5414 46.9229 30.6197C46.7412 31.5822 47.3135 31.5278 47.9722 31.5505C48.6762 31.5732 49.026 31.3779 49.1577 30.597C49.6755 27.4642 50.2478 24.3314 50.8065 21.1986C50.861 20.8853 50.9973 20.1952 50.9973 20.1952C51.347 20.1952 51.933 20.1952 52.3327 20.1952C64.4877 20.1952 76.6427 20.1952 88.7977 20.2179C89.6607 20.2179 89.9832 19.9591 90.0877 19.1055C90.2421 17.866 90.4829 16.622 90.7372 15.3825C91.0643 13.7616 92.5178 12.4222 93.8941 12.4267C95.3294 12.4267 96.1607 13.6708 95.8609 15.4143C95.3521 18.3564 94.8525 21.303 94.2938 24.2451C94.1212 25.1441 94.5255 25.2531 95.2613 25.244C95.9971 25.2349 96.524 25.2077 96.6421 24.227C96.7966 22.9194 97.0873 21.6072 97.3235 20.2542H106.744C106.903 21.135 107.067 21.9614 107.598 22.6197C108.752 24.059 110.487 24.2724 112.363 24.0635C114.502 23.8229 116.315 22.8558 117.346 20.6855C117.559 20.236 117.859 20.1952 118.236 20.1997C119.344 20.2043 120.457 20.177 121.556 20.2133C122.219 20.236 122.524 19.9818 122.624 19.3189C122.833 17.9977 123.051 16.6719 123.323 15.3507C123.655 13.7434 125.14 12.404 126.507 12.4222C127.915 12.4404 128.738 13.6662 128.447 15.3643C127.934 18.3337 127.434 21.303 126.866 24.2724C126.689 25.2077 127.17 25.2395 127.87 25.2349C128.565 25.2349 129.087 25.2031 129.21 24.2678C129.378 22.9557 129.66 21.639 129.869 20.454C132.008 20.3723 131.899 20.454 132.085 19.1055L132.094 19.0737ZM28.7858 17.9296C28.7858 17.9296 28.7722 17.9523 28.7585 17.9523C27.8637 17.975 27.1052 17.9977 26.3511 17.866C23.9256 17.4392 23.9619 14.3972 25.5472 12.9807C26.6373 11.8955 28.6586 11.9636 29.1355 13.3484C29.6306 14.7877 29.0538 16.3223 28.7858 17.9296ZM65.9503 17.9795C64.3878 17.9614 62.2166 18.1067 61.3808 17.8252C61.0129 17.7026 60.7722 17.2304 60.8403 16.7082C61.0856 14.7196 63.2477 12.7718 65.6732 12.4086C66.0639 12.3496 66.509 12.3405 66.9405 12.3677L65.9503 17.9795ZM113.998 21.2395C112.731 22.0476 110.864 22.0703 109.951 21.2939C109.024 20.5039 108.856 19.051 109.56 17.6572C110.36 16.0726 111.663 14.9648 113.217 14.0158C114.652 14.8694 115.488 16.0862 115.71 17.7298C115.91 19.1872 115.279 20.4267 113.998 21.244V21.2395Z"></path><path fill="white" d="M7.10575 0.45857C8.00057 0.45857 8.29128 0.690125 8.1005 1.64359C7.55544 4.39501 7.10121 7.15096 6.62428 9.90692C6.56977 10.2111 6.42442 10.538 6.5834 10.8604C6.5834 10.8695 6.59248 10.8695 6.60157 10.8695C6.60157 10.8695 6.61065 10.8695 6.61519 10.8695C7.56452 10.4064 8.4548 10.1748 9.26331 10.1748C10.4761 10.1748 11.5163 10.6924 12.3429 11.723C13.692 13.412 13.0652 15.6731 12.6836 17.8888C12.6836 17.9024 12.6882 17.9115 12.7018 17.9115H15.9358C15.9358 17.9115 15.9631 17.8978 15.9631 17.8842C16.1085 16.0272 16.5718 14.2111 16.817 12.395C16.9306 11.5687 17.3485 11.5051 17.8209 11.5051C17.9026 11.5051 17.9844 11.5051 18.0662 11.5051C18.1343 11.5051 18.207 11.5051 18.2751 11.5006C18.3569 11.496 18.4341 11.4915 18.5113 11.4915C19.0336 11.4915 19.3153 11.664 19.1563 12.395C18.8429 13.8252 18.6385 15.2554 18.3841 16.6856C18.2796 17.2804 18.3432 17.7616 19.0064 17.8706C19.6151 17.9705 20.2328 18.0023 20.8687 18.0023C21.6182 18.0023 22.3858 17.9614 23.1671 17.9478C23.1852 17.9478 23.1989 17.9251 23.1943 17.9115C22.0179 15.7684 22.3631 13.4484 24.0755 11.7276C25.2156 10.5834 26.4602 9.91146 27.8138 9.91146C28.1817 9.91146 28.5632 9.96141 28.9493 10.0658C30.7117 10.5426 31.4248 11.891 31.5657 13.6436C31.6747 15.0011 31.4158 16.4041 31.1705 17.8751C31.1705 17.8888 31.175 17.8978 31.1886 17.8978H35.1676C35.1676 17.8978 35.1858 17.8933 35.1904 17.8842C35.4356 17.5437 35.422 17.1896 35.4811 16.8536C36.385 11.7503 37.3025 6.64699 38.1655 1.5437C38.3063 0.699205 38.6334 0.45857 39.3737 0.45857C39.4101 0.45857 39.451 0.45857 39.4918 0.45857C40.2595 0.481271 40.741 0.517594 40.5366 1.53008C39.9779 4.30874 39.5327 7.09194 39.0422 9.8706C38.9877 10.1748 38.9331 10.479 38.8605 10.8967C38.8605 10.9103 38.8696 10.9194 38.8786 10.9194C38.8786 10.9194 38.8877 10.9194 38.8923 10.9194C39.9188 10.4245 40.8591 10.1793 41.7085 10.1793C42.9394 10.1793 43.975 10.7015 44.7926 11.7503C46.0417 13.3575 45.474 15.7684 45.1151 17.8524H49.026C49.1623 17.5573 49.1622 17.2758 49.2168 17.0079C49.8754 13.798 50.2024 10.2883 51.1381 7.08286C51.8649 4.59478 54.1451 2.98751 56.2799 2.98751C57.1384 2.98751 57.9696 3.24631 58.6691 3.80931C59.5776 4.54484 59.7638 5.64359 59.8637 6.81952C59.1415 7.24631 58.4784 7.32804 57.8016 7.35074C57.629 6.86947 57.5154 6.40636 57.2792 6.00681C56.9749 5.49376 56.4344 5.24858 55.853 5.24858C55.1671 5.24858 54.4176 5.59364 53.9089 6.25199C53.2457 7.11464 53.0549 8.08173 52.8732 9.01249C52.3191 11.8956 51.8376 14.7832 51.3153 17.7571C52.092 17.8252 52.8642 17.8434 53.6273 17.8434C54.3904 17.8434 55.1217 17.8252 55.8575 17.8252C56.7205 17.8252 57.5699 17.8479 58.4057 17.9478C58.66 14.4926 59.6911 12.9126 62.5982 11.5414C63.8609 10.9421 65.1736 10.597 66.4909 10.3927C67.2267 10.2792 67.9625 10.2157 68.6938 10.2111C68.7029 10.2111 68.7165 10.2111 68.7256 10.2111C69.4342 10.2111 69.575 10.4835 69.4478 11.1555C69.0754 13.0715 68.7756 14.9875 68.4168 16.9081C68.2941 17.5619 68.4622 17.975 69.1163 17.975C69.1253 17.975 69.1299 17.975 69.139 17.975C72.9817 17.9205 76.6109 17.9296 80.6626 17.8207C80.9306 17.798 81.2122 17.7117 81.4757 17.6027C82.1297 17.3439 82.5295 16.8899 82.593 16.2043C82.6566 15.5187 82.3432 15.1101 81.7209 14.9784C81.2667 14.8831 80.7898 14.8195 80.3083 14.815C79.8677 14.815 79.4317 14.8104 78.9911 14.8104C77.4376 14.8104 75.8796 14.8286 74.308 14.8377C74.2399 14.8377 74.1763 14.8422 74.1172 14.8422C73.0271 14.8422 72.6319 14.2565 72.4003 13.244C76.8789 10.361 81.3712 7.46879 85.9316 4.53575C86.2405 5.07605 86.5085 5.53916 86.8264 6.09308C83.3698 8.29966 79.9631 10.479 76.3202 12.8036C77.3286 12.8036 78.2598 12.8082 79.1591 12.8082C79.8268 12.8082 80.4718 12.8082 81.1214 12.7946C81.1622 12.7946 81.2031 12.7946 81.244 12.7946C81.8299 12.7946 82.3886 12.8581 82.9292 12.9898C84.8914 13.4665 85.5546 15.378 84.4508 17.3575C84.3554 17.5255 84.26 17.6981 84.1283 17.9387H87.8075C88.1164 17.6209 88.0755 17.2577 88.1346 16.9217C89.0476 11.7911 89.9787 6.66061 90.8326 1.53008C91.0053 0.508513 91.5004 0.503973 92.2635 0.472191C92.3134 0.472191 92.3588 0.472191 92.4043 0.472191C93.1356 0.472191 93.3581 0.735528 93.1992 1.5664C92.6541 4.3723 92.1862 7.18275 91.7002 9.98865C91.6503 10.2701 91.5049 10.5789 91.6866 10.8785C92.6405 10.4109 93.5353 10.1793 94.3529 10.1793C95.5657 10.1793 96.6104 10.6924 97.4325 11.7276C98.7816 13.4211 98.1502 15.6958 97.7686 17.9205H101.221C101.348 16.0908 101.829 14.2883 102.047 12.4904C102.17 11.4915 102.729 11.5142 103.442 11.5006C103.487 11.5006 103.533 11.5006 103.578 11.5006C104.219 11.5006 104.6 11.6141 104.4 12.4767C104.087 13.8479 103.928 15.2327 103.646 16.6084C103.465 17.4938 103.81 17.9251 104.627 17.9705C104.927 17.9886 105.227 17.9932 105.536 17.9932C106.017 17.9932 106.508 17.9796 107.012 17.9796C108.116 15.1646 110.269 13.4075 112.885 12.0953C113.13 11.9728 113.348 11.891 113.567 11.891C113.721 11.891 113.871 11.9319 114.025 12.0318C116.051 13.3121 117.818 14.7832 117.945 17.521C117.959 17.8161 118.091 17.9932 118.413 17.9932C118.413 17.9932 118.418 17.9932 118.422 17.9932C118.699 17.9932 118.976 17.9932 119.267 17.9932C119.667 17.9932 120.089 17.9932 120.548 17.9932C120.834 16.3632 121.102 14.8331 121.375 13.3031C121.47 12.7628 121.57 12.2225 121.674 11.6822C121.897 10.5153 122.147 10.1294 122.937 10.1294C123.16 10.1294 123.428 10.1612 123.755 10.2157C124.404 10.3246 124.018 10.8876 124.164 11.2645C125.117 10.7378 126.076 10.2202 127.093 10.2202C127.298 10.2202 127.507 10.2429 127.716 10.2883C130.055 10.8059 131.199 12.7264 130.768 15.4824C130.645 16.2815 130.486 17.0851 130.336 17.9478C130.359 17.9478 130.382 17.9478 130.4 17.9478C130.677 17.9478 130.918 17.9478 131.118 17.9478C132.312 17.9478 132.253 18.025 132.112 19.0692C131.931 20.4177 132.035 20.3405 129.896 20.4177C129.687 21.5982 129.41 22.9149 129.237 24.2316C129.115 25.1714 128.592 25.1986 127.897 25.1986C127.875 25.1986 127.852 25.1986 127.829 25.1986C127.166 25.1986 126.721 25.1396 126.893 24.2361C127.461 21.2667 127.965 18.2974 128.474 15.328C128.765 13.63 127.943 12.4041 126.535 12.3859C126.525 12.3859 126.516 12.3859 126.507 12.3859C125.145 12.3859 123.678 13.7162 123.35 15.3144C123.078 16.6356 122.855 17.9614 122.651 19.2826C122.551 19.9183 122.274 20.1771 121.665 20.1771C121.638 20.1771 121.611 20.1771 121.584 20.1771C121.134 20.1589 120.684 20.1544 120.235 20.1544C119.694 20.1544 119.153 20.1589 118.613 20.1589C118.495 20.1589 118.381 20.1589 118.263 20.1589C118.254 20.1589 118.245 20.1589 118.236 20.1589C117.873 20.1589 117.582 20.2089 117.373 20.6447C116.342 22.815 114.529 23.7775 112.39 24.0227C111.999 24.0681 111.618 24.0908 111.241 24.0908C109.815 24.0908 108.534 23.7185 107.621 22.5789C107.089 21.916 106.926 21.0942 106.767 20.2134H97.3462C97.11 21.5619 96.8193 22.8785 96.6649 24.1861C96.5468 25.1669 96.0153 25.1941 95.284 25.2032C95.2613 25.2032 95.2386 25.2032 95.2159 25.2032C94.5255 25.2032 94.153 25.0715 94.3165 24.2043C94.8798 21.2622 95.3749 18.3201 95.8836 15.3734C96.1834 13.6345 95.3567 12.3859 93.9168 12.3859C92.5451 12.3859 91.0916 13.7253 90.7645 15.3417C90.5102 16.5812 90.2694 17.8297 90.115 19.0647C90.0105 19.9137 89.6926 20.1771 88.8341 20.1771C88.8341 20.1771 88.8295 20.1771 88.825 20.1771C76.6745 20.1498 64.5195 20.1544 52.36 20.1544C52.2282 20.1544 52.0738 20.1544 51.9148 20.1544C51.5969 20.1544 51.2562 20.1544 51.0246 20.1544C51.0246 20.1544 50.8883 20.849 50.8338 21.1578C50.2751 24.2906 49.7028 27.4234 49.185 30.5562C49.0623 31.2963 48.7398 31.5096 48.1084 31.5096C48.0721 31.5096 48.0403 31.5096 48.004 31.5096C47.3454 31.4869 46.773 31.5414 46.9547 30.5789C47.5361 27.5006 48.0539 24.4222 48.5899 21.3439C48.6444 21.0397 48.8034 20.4041 48.7807 20.1771H44.6972C44.5065 21.2486 44.1794 22.8104 44.0341 24.0499C43.9251 24.9762 43.5253 25.1941 42.6623 25.1941C41.7902 25.1941 41.5177 24.9489 41.6948 24.0409C42.2535 21.1532 42.735 18.2611 43.2392 15.3734C43.5435 13.63 42.735 12.3995 41.2951 12.3632C41.2815 12.3632 41.2633 12.3632 41.2497 12.3632C39.8825 12.3632 38.429 13.7344 38.1065 15.378C37.8566 16.6447 37.6159 17.916 37.4388 19.1827C37.3388 19.9228 37.0163 20.1498 36.3395 20.1498C36.3168 20.1498 36.2941 20.1498 36.2714 20.1498C35.5038 20.1317 34.7316 20.1271 33.9412 20.1271C32.8874 20.1271 31.8018 20.1362 30.6345 20.1362C30.6209 20.1362 30.6072 20.1453 30.6072 20.1589C30.1803 22.5789 29.776 24.8581 29.3763 27.1373C29.1583 28.3905 28.536 29.4529 27.4913 30.3337C26.5056 31.1646 25.4836 31.5233 24.4707 31.5233C23.9483 31.5233 23.4214 31.4279 22.9082 31.2509C21.3547 30.7242 20.6643 29.4801 20.6098 27.7957C20.6098 27.7866 20.6098 27.7775 20.6234 27.773C21.0867 27.5414 22.2041 27.2736 22.3904 27.2418C22.4221 27.2372 22.4494 27.2327 22.4767 27.2327C22.7764 27.2327 22.7719 27.555 22.8219 27.8184C22.9945 28.6992 23.7621 29.3076 24.5979 29.3076C24.6751 29.3076 24.7523 29.3031 24.8341 29.2894C25.9287 29.1396 26.9598 28.3178 27.1733 27.2554C27.6321 24.9444 28.0045 22.6334 28.427 20.2361C28.427 20.2225 28.4224 20.2134 28.4088 20.2134H12.2748C12.2748 20.2134 12.2476 20.2225 12.2476 20.2361C12.0114 21.5619 11.7388 22.8695 11.5708 24.168C11.4527 25.0624 10.9939 25.1669 10.2671 25.1669C10.2626 25.1669 10.2581 25.1669 10.2535 25.1669C9.50405 25.1669 9.04529 25.0942 9.22698 24.1407C9.79475 21.1986 10.2899 18.2565 10.7986 15.3099C11.0893 13.6209 10.2944 12.4086 8.88177 12.3496C8.85451 12.3496 8.82726 12.3496 8.80001 12.3496C7.47822 12.3496 6.02016 13.6663 5.68404 15.2509C5.40242 16.5721 5.17985 17.8978 4.97999 19.2191C4.87552 19.891 4.64387 20.1271 3.87169 20.1271C3.84443 20.1271 3.82172 20.1271 3.79447 20.1271L1.36892 20.1135C1.36892 20.1135 1.35984 20.1135 1.35529 20.1135C1.20086 20.1135 1.06913 20.1135 0.960119 20.1135C0.333292 20.1135 0.396883 20.0363 0.583114 19.0011C0.751177 18.0749 0.692128 17.9841 1.46885 17.9841C1.48248 17.9841 1.4961 17.9841 1.50973 17.9841C1.64145 17.9796 2.04571 17.975 2.3455 17.9705C2.60441 17.9705 2.86331 17.7798 2.94507 17.521C3.01775 17.3076 3.01775 17.0988 3.05409 16.8944C3.96253 11.7911 4.88006 6.68785 5.73854 1.58456C5.89298 0.676504 6.22456 0.435868 7.10121 0.435868M27.7684 17.9659C28.0818 17.9659 28.4088 17.9569 28.7586 17.9478C28.7722 17.9478 28.7858 17.9387 28.7858 17.9251C29.0583 16.3178 29.6307 14.7832 29.1356 13.3439C28.8767 12.5902 28.159 12.227 27.3823 12.227C26.7327 12.227 26.0423 12.4813 25.5427 12.9762C23.9529 14.3973 23.9211 17.4347 26.3466 17.8615C26.8099 17.9432 27.2687 17.9659 27.7638 17.9659M63.4158 17.9977C64.1425 17.9977 64.9374 17.975 65.6415 17.975C65.7459 17.975 65.8459 17.975 65.9458 17.975L66.936 12.3632C66.7816 12.3541 66.6226 12.3496 66.4681 12.3496C66.1911 12.3496 65.9185 12.3678 65.6687 12.4041C63.2432 12.7718 61.0811 14.7151 60.8358 16.7037C60.7722 17.2259 61.0084 17.6981 61.3763 17.8207C61.7987 17.9614 62.5618 17.9932 63.4158 17.9932M111.781 21.8524C112.535 21.8524 113.344 21.6436 113.989 21.2304C115.27 20.4132 115.897 19.1737 115.701 17.7162C115.479 16.0726 114.643 14.8558 113.208 14.0023C111.65 14.9512 110.351 16.059 109.551 17.6436C108.847 19.0375 109.02 20.4904 109.942 21.2804C110.387 21.6617 111.059 21.8479 111.777 21.8479M7.10575 0.00454029C5.98837 0.00454029 5.47964 0.435868 5.29341 1.53462C4.58482 5.75255 3.81718 10.0477 3.0768 14.1975L2.60441 16.84C2.59078 16.9171 2.5817 16.9943 2.57261 17.0715C2.55898 17.1941 2.54536 17.3031 2.51356 17.403C2.48631 17.4801 2.40001 17.5392 2.33641 17.5392H2.01846C1.80043 17.5482 1.59149 17.5482 1.4961 17.5528H1.46431C0.469559 17.5528 0.319665 17.8706 0.174314 18.7196L0.133434 18.9421L0.097096 19.151C-0.0119175 19.7412 -0.0709665 20.0681 0.151603 20.336C0.365087 20.5902 0.692128 20.5902 0.955577 20.5902H1.35075L3.78993 20.6039H3.87169C4.83918 20.6039 5.28886 20.2316 5.42967 19.3144C5.66587 17.7662 5.88844 16.5131 6.12918 15.3734C6.41534 14.0204 7.66445 12.8309 8.80001 12.8309C8.82272 12.8309 8.84089 12.8309 8.8636 12.8309C9.34507 12.849 9.74025 13.0397 10.0082 13.3712C10.3625 13.8116 10.4852 14.4835 10.3534 15.2645L10.0673 16.9217C9.66303 19.269 9.24514 21.6981 8.78184 24.0817C8.71825 24.4132 8.66828 24.8944 8.95898 25.2531C9.25877 25.6163 9.74025 25.6481 10.249 25.6527H10.2535C10.8213 25.6527 11.8342 25.6481 12.0159 24.2543C12.134 23.3507 12.3066 22.4154 12.4747 21.5165C12.5246 21.244 12.5791 20.9671 12.6291 20.6901H27.8592C27.7684 21.2123 27.6775 21.7299 27.5912 22.2474C27.3005 23.9501 27.0234 25.5573 26.6964 27.1918C26.5329 28.0136 25.6926 28.731 24.7432 28.8627C24.6842 28.8717 24.6297 28.8763 24.5706 28.8763C23.9302 28.8763 23.3715 28.4041 23.2397 27.7548C23.2307 27.7185 23.2261 27.6822 23.2216 27.6459C23.1852 27.4143 23.0899 26.8014 22.4494 26.8014C22.3994 26.8014 22.3449 26.8014 22.2859 26.815C22.1269 26.8422 20.9368 27.1192 20.3918 27.3871C20.2283 27.4688 20.1238 27.6459 20.1283 27.832C20.1919 29.807 21.0958 31.1464 22.7356 31.7049C23.3124 31.9001 23.8847 32 24.4434 32C25.6199 32 26.7373 31.5641 27.7593 30.7015C28.8767 29.7616 29.5625 28.5948 29.7987 27.2372C30.0758 25.6345 30.362 24.0318 30.6527 22.3837L30.9661 20.6084C31.4339 20.6084 31.8927 20.6084 32.3424 20.6084C32.8784 20.6084 33.4053 20.6084 33.9185 20.6084C34.8315 20.6084 35.5674 20.6129 36.2396 20.6311H36.3168C37.2434 20.6311 37.7385 20.1998 37.8657 19.2736C38.0429 17.9841 38.2882 16.6992 38.5289 15.4915C38.806 14.0795 40.0687 12.84 41.227 12.84H41.2633C41.7493 12.8536 42.149 13.0306 42.4216 13.3621C42.7895 13.807 42.9121 14.5017 42.7713 15.319C42.6714 15.9001 42.5715 16.4813 42.4715 17.067C42.0809 19.3326 41.6767 21.6754 41.2315 23.9773C41.1543 24.3814 41.1043 24.8899 41.4087 25.2577C41.7084 25.6209 42.2036 25.6708 42.6487 25.6708C43.5026 25.6708 44.3157 25.4847 44.4792 24.1271C44.5882 23.2191 44.7926 22.143 44.9698 21.1896C45.0061 21.0034 45.0379 20.8263 45.0697 20.6538H48.2629C48.2402 20.7628 48.2175 20.8717 48.2038 20.9535C48.1766 21.0806 48.1539 21.1986 48.1357 21.2894L47.8314 23.0602C47.4089 25.5074 46.9729 28.0318 46.505 30.5199C46.4142 30.9921 46.4732 31.3462 46.6731 31.5959C46.9684 31.9591 47.4407 31.9728 47.8586 31.9818H47.9858C48.0267 31.9864 48.0676 31.9864 48.1084 31.9864C49.0124 31.9864 49.4847 31.5732 49.6346 30.6515C50.0707 28.0227 50.5522 25.3439 51.0155 22.756L51.2835 21.2622C51.3107 21.1033 51.3607 20.8445 51.4016 20.6311H59.4913C69.1072 20.6311 79.0456 20.6311 88.8204 20.6538C89.9288 20.6538 90.4284 20.2179 90.5647 19.1464C90.7236 17.8888 90.9689 16.6311 91.2097 15.4552C91.4913 14.0749 92.754 12.8627 93.9168 12.8627C94.3983 12.8627 94.798 13.0352 95.0705 13.3621C95.4476 13.8116 95.5747 14.5017 95.4339 15.319L95.1705 16.8536C94.7571 19.2418 94.3347 21.7117 93.8669 24.1407C93.8033 24.4676 93.7533 24.9444 94.044 25.294C94.3256 25.6345 94.7708 25.6799 95.2114 25.6799H95.284C95.9835 25.6708 96.942 25.6617 97.11 24.2633C97.219 23.3644 97.3871 22.479 97.5642 21.5392C97.6187 21.2577 97.6687 20.9762 97.7232 20.6947H106.385C106.526 21.4347 106.73 22.2293 107.262 22.8922C108.17 24.0227 109.469 24.5721 111.236 24.5721C111.613 24.5721 112.004 24.5494 112.435 24.4994C114.97 24.2134 116.769 22.9921 117.777 20.8672C117.873 20.6674 117.932 20.6402 118.227 20.6402H118.599C118.872 20.6402 119.14 20.6402 119.412 20.6402C119.68 20.6402 119.953 20.6402 120.221 20.6402C120.748 20.6402 121.17 20.6447 121.552 20.6583C121.584 20.6583 121.62 20.6583 121.652 20.6583C122.483 20.6583 122.951 20.2406 123.087 19.3825C123.269 18.2111 123.496 16.8309 123.782 15.437C124.064 14.0704 125.331 12.8717 126.494 12.8717C126.989 12.8763 127.384 13.0533 127.652 13.3802C128.02 13.8207 128.147 14.4972 128.011 15.2826L127.838 16.2951C127.393 18.8831 126.934 21.5573 126.43 24.1861C126.371 24.504 126.321 24.9671 126.607 25.3076C126.921 25.6844 127.438 25.6844 127.815 25.6844H127.884C128.529 25.6844 129.496 25.6754 129.673 24.3178C129.791 23.4007 129.964 22.4881 130.127 21.6027C130.173 21.3621 130.218 21.1215 130.259 20.8899C132.026 20.8263 132.33 20.7628 132.521 19.328L132.544 19.16L132.558 19.0465C132.635 18.4972 132.685 18.1294 132.43 17.8388C132.171 17.5392 131.754 17.5255 131.1 17.5255H130.859C130.877 17.4347 130.891 17.3439 130.909 17.2531C131.013 16.681 131.113 16.1362 131.195 15.5868C131.663 12.5857 130.391 10.4518 127.793 9.87968C127.557 9.82974 127.316 9.8025 127.075 9.8025C126.185 9.8025 125.345 10.1566 124.572 10.5562C124.536 10.2565 124.382 9.89784 123.809 9.8025C123.428 9.73893 123.155 9.71169 122.919 9.71169C121.679 9.71169 121.411 10.5834 121.211 11.6322C121.107 12.1725 121.007 12.7174 120.911 13.2577C120.716 14.3428 120.525 15.4325 120.33 16.5539L120.153 17.5709H119.249C118.963 17.5709 118.681 17.5709 118.404 17.5709C118.404 17.5709 118.395 17.5709 118.39 17.5709C118.39 17.5619 118.39 17.5482 118.39 17.5346C118.254 14.5925 116.324 12.9852 114.257 11.6822C114.034 11.5414 113.798 11.4733 113.553 11.4733C113.217 11.4733 112.903 11.6095 112.672 11.723C109.656 13.235 107.748 15.0919 106.699 17.5573C106.544 17.5573 106.394 17.5573 106.24 17.5619C105.999 17.5619 105.763 17.5664 105.527 17.5664C105.182 17.5664 104.904 17.5619 104.646 17.5437C104.464 17.5346 104.223 17.4938 104.123 17.3666C104.037 17.2531 104.023 17.0261 104.087 16.7264C104.214 16.109 104.319 15.4824 104.418 14.8785C104.541 14.1294 104.668 13.3575 104.841 12.6039C104.914 12.277 104.982 11.8048 104.7 11.4506C104.432 11.1146 104.001 11.0692 103.574 11.0692C103.528 11.0692 103.478 11.0692 103.428 11.0692H103.369C102.692 11.0829 101.761 11.0965 101.593 12.4586C101.502 13.1986 101.362 13.9569 101.23 14.6969C101.062 15.6095 100.894 16.5448 100.798 17.4892H98.3046C98.3182 17.4166 98.3319 17.3439 98.3455 17.2667C98.718 15.2327 99.1086 13.1305 97.7823 11.4688C96.8738 10.3292 95.7201 9.75255 94.3483 9.75255C93.6488 9.75255 92.8994 9.90692 92.1181 10.2157C92.1272 10.1748 92.1363 10.1339 92.1454 10.0931C92.2453 9.50738 92.3452 8.92622 92.4497 8.34052C92.8267 6.15664 93.2128 3.89557 93.6443 1.67537C93.7215 1.28036 93.7715 0.785471 93.4762 0.426788C93.1901 0.0817253 92.7313 0.0408627 92.4043 0.0408627C92.3543 0.0408627 92.3043 0.0408627 92.2498 0.0408627H92.2135C91.464 0.0726447 90.6192 0.104427 90.3875 1.4756C89.6926 5.62997 88.9385 9.85698 88.2118 13.9387L87.6894 16.8581C87.6758 16.9444 87.6622 17.0306 87.6531 17.1169C87.6349 17.2849 87.6168 17.403 87.5759 17.5028H84.896C85.5001 16.3723 85.6045 15.2281 85.1867 14.2747C84.8142 13.4211 84.0511 12.8173 83.0382 12.5675C82.475 12.4313 81.8708 12.3587 81.244 12.3587H81.1123C80.4627 12.3678 79.8177 12.3723 79.1546 12.3723C78.7322 12.3723 78.3052 12.3723 77.8646 12.3723L87.0671 6.49262L87.4305 6.26107L87.217 5.88422L86.8491 5.24404L86.086 3.90919L85.6863 4.16799L71.887 13.0488L71.9597 13.3575C72.1686 14.2656 72.6002 15.3099 74.1218 15.3099C74.1899 15.3099 74.2581 15.3099 74.3262 15.3053C74.8849 15.3053 75.439 15.2963 75.9932 15.2917C76.997 15.2826 77.9963 15.2736 78.9956 15.2736C79.4317 15.2736 79.8723 15.2736 80.3083 15.2781C80.7353 15.2781 81.1804 15.3326 81.6301 15.4279C82.0434 15.5187 82.1888 15.723 82.1434 16.168C82.0979 16.6538 81.8299 16.9807 81.3076 17.1896C81.0487 17.294 80.8261 17.353 80.6353 17.3757C77.9918 17.4438 75.489 17.4665 73.068 17.4892C71.7644 17.4983 70.4653 17.5119 69.139 17.5301C68.98 17.5301 68.9028 17.5028 68.8801 17.4756C68.8483 17.4393 68.8119 17.2985 68.871 17.0034C69.039 16.1226 69.1935 15.2236 69.3434 14.3564C69.5205 13.3394 69.7022 12.286 69.9021 11.2554C69.9702 10.9058 70.0156 10.4563 69.7431 10.1294C69.4751 9.8025 69.039 9.76617 68.7347 9.76617H68.6984C67.9489 9.77526 67.1858 9.83882 66.4273 9.95687C64.9238 10.1884 63.6111 10.5789 62.4119 11.1419C59.4822 12.5267 58.3285 14.1521 58.0014 17.462C57.2247 17.3939 56.4662 17.3848 55.8666 17.3848C55.4987 17.3848 55.1307 17.3848 54.7583 17.3939C54.3858 17.3939 54.0133 17.403 53.6363 17.403C52.9459 17.403 52.3781 17.3893 51.8558 17.3575C51.9739 16.6947 52.0874 16.0363 52.201 15.378C52.5735 13.2213 52.9278 11.1873 53.3275 9.11237C53.4955 8.2361 53.6727 7.33258 54.2768 6.54256C54.6674 6.03405 55.2715 5.71623 55.8575 5.71623C56.1255 5.71623 56.6115 5.78434 56.8931 6.25199C57.0385 6.49716 57.1384 6.79682 57.2429 7.11464C57.2837 7.24631 57.3292 7.37798 57.3791 7.51419L57.4927 7.82747L57.8243 7.81385C58.4829 7.78661 59.2505 7.7185 60.0999 7.21907L60.3452 7.07378L60.3225 6.79228C60.2271 5.63905 60.0363 4.33598 58.9598 3.46879C58.2104 2.86493 57.2838 2.54257 56.2845 2.54257C53.7999 2.54257 51.4561 4.40409 50.7066 6.96481C50.107 9.02157 49.7527 11.21 49.4075 13.3258C49.2122 14.5199 49.0124 15.7594 48.7762 16.9217C48.758 17.0125 48.7444 17.0988 48.7307 17.1896C48.7217 17.2622 48.7126 17.3348 48.6989 17.3984H45.6602C46.019 15.3825 46.4233 13.1033 45.156 11.4733C44.2521 10.3156 43.0938 9.72531 41.713 9.72531C41.0135 9.72531 40.2549 9.87968 39.451 10.1884L39.4918 9.95233C39.6326 9.16232 39.7689 8.37684 39.9006 7.58683C40.2368 5.62997 40.5865 3.60499 40.9817 1.62089C41.0498 1.28036 41.1089 0.785471 40.8227 0.426788C40.5138 0.0363224 40.0006 0.0227015 39.5055 0.00454029C39.46 0.00454029 39.4146 0.00454029 39.3737 0.00454029C38.3881 0.00454029 37.893 0.444949 37.7158 1.47106C37.0118 5.63451 36.2578 9.87514 35.531 13.9705L35.0314 16.7764C35.0177 16.8581 35.0041 16.9444 34.995 17.0261C34.9769 17.185 34.9587 17.3212 34.9133 17.4438H31.6974C31.9199 16.118 32.1153 14.8604 32.0153 13.6027C31.8427 11.4415 30.848 10.1022 29.0629 9.62088C28.645 9.50738 28.2226 9.45289 27.8092 9.45289C26.4011 9.45289 25.0339 10.1067 23.7485 11.4007C22.0406 13.1169 21.5955 15.3598 22.4948 17.5028C22.3858 17.5028 22.2768 17.5074 22.1678 17.5119C21.7181 17.5255 21.2911 17.5392 20.8642 17.5392C20.1556 17.5392 19.5878 17.4983 19.0791 17.4166C18.9928 17.403 18.8838 17.3712 18.8429 17.3121C18.8111 17.2667 18.7657 17.1305 18.8292 16.7582C18.911 16.2997 18.9882 15.8365 19.0654 15.378C19.2244 14.4245 19.3879 13.4438 19.6014 12.4813C19.7059 11.9955 19.6605 11.6368 19.4561 11.3825C19.1972 11.0647 18.7975 11.0284 18.5158 11.0284C18.4341 11.0284 18.3432 11.0284 18.2524 11.0375C18.1933 11.0375 18.1343 11.042 18.0752 11.042H17.83C17.4484 11.042 16.549 11.042 16.3764 12.3224C16.2811 13.0352 16.1448 13.7707 16.0131 14.479C15.8359 15.4461 15.6542 16.4404 15.5543 17.4438H13.2241C13.2378 17.3666 13.2514 17.2894 13.265 17.2123C13.6375 15.1827 14.0236 13.0851 12.6972 11.4234C11.7843 10.2838 10.6305 9.70715 9.26331 9.70715C8.55927 9.70715 7.8098 9.86606 7.02854 10.1793C7.04671 10.1112 7.06033 10.0431 7.06942 9.97503C7.17843 9.35755 7.2829 8.73553 7.38737 8.11805C7.74621 6.02043 8.11867 3.85471 8.5411 1.72531C8.62286 1.31215 8.67737 0.790011 8.36849 0.417707C8.06417 0.0499432 7.55544 0 7.09667 0L7.10575 0.00454029ZM27.7684 17.5119C27.2187 17.5119 26.8054 17.4801 26.4284 17.4166C25.4745 17.2486 25.1066 16.6356 24.9703 16.1498C24.7023 15.2054 25.0703 14.0114 25.8515 13.3167L25.8697 13.2985C26.2558 12.9126 26.8236 12.681 27.3868 12.681C28.0409 12.681 28.536 12.9852 28.7086 13.4938C29.0447 14.4745 28.8131 15.5641 28.5632 16.7174C28.5087 16.9762 28.4497 17.2395 28.3997 17.5074C28.1817 17.5119 27.9728 17.5165 27.7684 17.5165V17.5119ZM63.4203 17.5437C62.8026 17.5437 61.9305 17.5301 61.5262 17.3939C61.399 17.353 61.2491 17.1078 61.29 16.7628C61.5126 14.9739 63.552 13.185 65.7414 12.8536C65.9412 12.8218 66.1638 12.8082 66.4 12.8036L65.5688 17.521C65.2417 17.521 64.892 17.5255 64.5422 17.5346C64.1652 17.5392 63.7837 17.5482 63.4158 17.5482L63.4203 17.5437ZM111.786 21.403C111.15 21.403 110.587 21.235 110.246 20.9444C109.479 20.2906 109.365 19.0465 109.965 17.857C110.605 16.5857 111.613 15.5596 113.217 14.5471C114.402 15.3235 115.07 16.3859 115.261 17.7843C115.429 19.0375 114.897 20.1271 113.753 20.8536C113.203 21.2032 112.485 21.403 111.786 21.403Z"></path></svg>